. 
  
http://www.torrentday.com/        :     The Hottest Private Tracker On The Net!!!


               www . TorrentDay . Com 
(((((((((((((= Enjoy No RAR releases =))))))))))))))))))))


...................................NFO:....................................

.*******************************************************************************
               The.Eagle.Has.Landed.1976.DVDRip.AC3.X264-BARC0DE
*******************************************************************************

-------------------------------------------------------------------------------
                              General Information
-------------------------------------------------------------------------------
Type.................: Movie
Name.................: The Eagle Has Landed
Movie Information....: http://www.imdb.com/title/tt0074452/
Genre................: Adventure | Drama | Thriller | War
-------------------------------------------------------------------------------
                                    PLOT
-------------------------------------------------------------------------------
Oberst Steiner, a German parachute unit commander, is sent to England on a covert 
mission to kidnap Prime Minister Winston Churchill and bring him to Berlin. The 
seemingly impossible assignment becomes more and more feasible as the mission grows 
nearer with Steiner and his men arriving in England to a very real possibility of 
success.

-------------------------------------------------------------------------------
                                    CAST
-------------------------------------------------------------------------------
Michael Caine	... 	Colonel Steiner
Donald Sutherland	... 	Liam Devlin
Robert Duvall	... 	Colonel Radl
Jenny Agutter	... 	Molly
Donald Pleasence	... 	Himmler
Anthony Quayle	... 	Admiral Canaris
Jean Marsh	... 	Joanna Grey
Sven-Bertil Taube	... 	Captain von Neustadt
John Standing	... 	Father Verecker
Judy Geeson	... 	Pamela
Treat Williams	... 	Captain Clark
Larry Hagman	... 	Colonel Pitts 

-------------------------------------------------------------------------------
                                    MEDiA iNFO
-------------------------------------------------------------------------------

General
Complete name                    : The.Eagle.Has.Landed.1976.DVDRip.AC3.X264-BARC0DE.mkv
Format                           : Matroska
File size                        : 1.46 GiB
Duration                         : 2h 9mn
Overall bit rate                 : 1 606 Kbps

Video
ID                               : 1
Format                           : AVC
Format/Info                      : Advanced Video Codec
Format profile                   : High@L3.0
Format settings, CABAC           : Yes
Format settings, ReFrames        : 3 frames
Muxing mode                      : Container profile=Unknown@3.0
Codec ID                         : V_MPEG4/ISO/AVC
Duration                         : 2h 9mn
Bit rate                         : 1 415 Kbps
Width                            : 720 pixels
Height                           : 304 pixels
Display aspect ratio             : 2.35:1
Frame rate                       : 25.000 fps
Color space                      : YUV
Chroma subsampling               : 4:2:0
Bit depth                        : 8 bits
Scan type                        : Progressive
Bits/(Pixel*Frame)               : 0.259
Stream size                      : 1.25 GiB (86%)
Writing library                  : x264 core 79

Audio
ID                               : 2
Format                           : AC-3
Format/Info                      : Audio Coding 3
Mode extension                   : CM (complete main)
Codec ID                         : A_AC3
Duration                         : 2h 9mn
Bit rate mode                    : Constant
Bit rate                         : 192 Kbps
Channel(s)                       : 2 channels
Channel positions                : Front: L R
Sampling rate                    : 48.0 KHz
Stream size                      : 178 MiB (12%)
Language                         : English

Text
ID                               : 3
Format                           : VobSub
Codec ID                         : S_VOBSUB
Codec ID/Info                    : The same subtitle format used on DVDs
Language                         : Turkish

Menu
00:00:00.000                     : Chapter 1
00:09:39.960                     : Chapter 2
00:25:48.640                     : Chapter 3
00:36:02.920                     : Chapter 4
00:47:56.240                     : Chapter 5
01:00:49.440                     : Chapter 6
01:11:35.600                     : Chapter 7
01:21:32.720                     : Chapter 8
01:39:49.760                     : Chapter 9
01:50:02.120                     : Chapter 10
01:54:11.240                     : Chapter 11
02:01:22.200                     : Chapter 12
02:09:55.120                     : Chapter 13